# xmcd CD database file
#
# Track frame offsets:
#	150
#	11375
#	21832
#	31570
#	38057
#	50675
#	61632
#	75750
#	85140
#	100555
#	112427
#	123145
#	132952
#	150792
#	164292
#	180652
#	198892
#	213510
#	225362
#	240407
#	254972
#	272825
#
# Disc length: 3870 seconds
#
# Revision: 0
# Processed by: cddbd v1.5.2PL0 Copyright (c) Steve Scherf et al.
# Submitted via: CDex 1.51
#
DISCID=080f1c16
DTITLE=Various Artist - BEST OF BLITISH BLUES ROCK
DYEAR=1900
DGENRE=Blues
TTITLE0=スネイクドライヴ(エリック・クラプトン)  
TTITLE1=ウェスト・コースト・アイデア(エリック・クラプトン)  
TTITLE2=エルモアに捧ぐ(エリック・クラプトン)  
TTITLE3=チョーカー(エリック・クラプトン&ジミー・ペイジ)  
TTITLE4=フライト・ローダー(エリック・クラプトン&ジミー・ペイジ)  
TTITLE5=マイルス・ロード(エリック・クラプトン&ジミー・ペイジ)  
TTITLE6=ドラッギン・マイ・テイル(エリック・クラプトン&ジミー・ペイジ)  
TTITLE7=L.A.ブレイクダウン(ジミー・ペイジ&オールスターズ)  
TTITLE8=ダウン・イン・ザ・ブーツ(ジミー・ペイジ&オールスターズ)  
TTITLE9=スティーリン(ジェフ・ベック&オールスターズ)  
TTITLE10=チャックルス(ジェフ・ベック&オールスターズ)  
TTITLE11=アイム・エア・ウイッチドクター(ジョン・メイオール&ブルースブレイカーズ)  
TTITLE12=テレフォン・ブルース(ジョン・メイオール&ブルースブレイカーズ)  
TTITLE13=ピアノ・シャッフル(ニッキー・ホプキンス&オールスターズ)  
TTITLE14=キャント・クワイト・ユー・ベイビー(サヴォイ・ブラウン・ブルースバンド)  
TTITLE15=トゥルー・ブルー(サヴォイ・ブラウン・ブルースバンド)  
TTITLE16=ポーキュパイン・ジュース(サンタ・バーバラ&マシン・ヘッド)  
TTITLE17=ラバー・モンキー(サンタ・バーバラ&マシン・ヘッド)  
TTITLE18=アルバート(サンタ・バーバラ&マシン・ヘッド)  
TTITLE19=ソー・マッチ・トゥ・セイ(ロッド・スチュワート)  
TTITLE20=リトル・ミス・アンダーストゥッド(ロッド・スチュワート)  
TTITLE21=ネクスト・マイルストーン(アルバート・リー)  
EXTD=
EXTT0=
EXTT1=
EXTT2=
EXTT3=
EXTT4=
EXTT5=
EXTT6=
EXTT7=
EXTT8=
EXTT9=
EXTT10=
EXTT11=
EXTT12=
EXTT13=
EXTT14=
EXTT15=
EXTT16=
EXTT17=
EXTT18=
EXTT19=
EXTT20=
EXTT21=
PLAYORDER=
